<mxfile host="app.diagrams.net" modified="2023-09-22T20:42:11.342Z" agent="Mozilla/5.0 (Windows NT 10.0; Win64; x64) AppleWebKit/537.36 (KHTML, like Gecko) Chrome/117.0.0.0 Safari/537.36" etag="XdYRTtQqo2-H13O-QIWJ" version="21.8.1" type="google">
  <diagram id="C5RBs43oDa-KdzZeNtuy" name="Page-1">
    <mxGraphModel grid="1" page="1" gridSize="10" guides="1" tooltips="1" connect="1" arrows="1" fold="1" pageScale="1" pageWidth="827" pageHeight="1169" math="0" shadow="0">
      <root>
        <mxCell id="WIyWlLk6GJQsqaUBKTNV-0" />
        <mxCell id="WIyWlLk6GJQsqaUBKTNV-1" parent="WIyWlLk6GJQsqaUBKTNV-0" />
        <mxCell id="cbIArnzknJB_H6aLfE_H-5" value="" style="edgeStyle=orthogonalEdgeStyle;rounded=0;orthogonalLoop=1;jettySize=auto;html=1;" edge="1" parent="WIyWlLk6GJQsqaUBKTNV-1" source="cbIArnzknJB_H6aLfE_H-0" target="cbIArnzknJB_H6aLfE_H-4">
          <mxGeometry relative="1" as="geometry" />
        </mxCell>
        <mxCell id="cbIArnzknJB_H6aLfE_H-8" value="" style="edgeStyle=orthogonalEdgeStyle;rounded=0;orthogonalLoop=1;jettySize=auto;html=1;entryX=0.5;entryY=0;entryDx=0;entryDy=0;" edge="1" parent="WIyWlLk6GJQsqaUBKTNV-1" target="cbIArnzknJB_H6aLfE_H-7">
          <mxGeometry relative="1" as="geometry">
            <mxPoint x="80.0344827586207" y="419.9999999999999" as="sourcePoint" />
            <mxPoint x="60" y="499.9999999999999" as="targetPoint" />
          </mxGeometry>
        </mxCell>
        <mxCell id="cbIArnzknJB_H6aLfE_H-9" value="" style="edgeStyle=orthogonalEdgeStyle;rounded=0;orthogonalLoop=1;jettySize=auto;html=1;endArrow=none;endFill=0;" edge="1" parent="WIyWlLk6GJQsqaUBKTNV-1" source="cbIArnzknJB_H6aLfE_H-10" target="cbIArnzknJB_H6aLfE_H-1">
          <mxGeometry relative="1" as="geometry" />
        </mxCell>
        <mxCell id="cbIArnzknJB_H6aLfE_H-18" value="" style="edgeStyle=orthogonalEdgeStyle;rounded=0;orthogonalLoop=1;jettySize=auto;html=1;" edge="1" parent="WIyWlLk6GJQsqaUBKTNV-1" source="cbIArnzknJB_H6aLfE_H-0" target="cbIArnzknJB_H6aLfE_H-17">
          <mxGeometry relative="1" as="geometry" />
        </mxCell>
        <mxCell id="cbIArnzknJB_H6aLfE_H-0" value="Ingredientes" style="rounded=0;whiteSpace=wrap;html=1;" vertex="1" parent="WIyWlLk6GJQsqaUBKTNV-1">
          <mxGeometry x="20" y="360" width="120" height="60" as="geometry" />
        </mxCell>
        <mxCell id="cbIArnzknJB_H6aLfE_H-23" style="edgeStyle=orthogonalEdgeStyle;rounded=0;orthogonalLoop=1;jettySize=auto;html=1;entryX=0.5;entryY=0;entryDx=0;entryDy=0;" edge="1" parent="WIyWlLk6GJQsqaUBKTNV-1" source="cbIArnzknJB_H6aLfE_H-1" target="cbIArnzknJB_H6aLfE_H-22">
          <mxGeometry relative="1" as="geometry" />
        </mxCell>
        <mxCell id="cbIArnzknJB_H6aLfE_H-24" style="edgeStyle=orthogonalEdgeStyle;rounded=0;orthogonalLoop=1;jettySize=auto;html=1;entryX=0;entryY=0.5;entryDx=0;entryDy=0;" edge="1" parent="WIyWlLk6GJQsqaUBKTNV-1" source="cbIArnzknJB_H6aLfE_H-1" target="cbIArnzknJB_H6aLfE_H-25">
          <mxGeometry relative="1" as="geometry">
            <mxPoint x="470" y="400" as="targetPoint" />
          </mxGeometry>
        </mxCell>
        <mxCell id="cbIArnzknJB_H6aLfE_H-29" value="" style="edgeStyle=orthogonalEdgeStyle;rounded=0;orthogonalLoop=1;jettySize=auto;html=1;" edge="1" parent="WIyWlLk6GJQsqaUBKTNV-1" source="cbIArnzknJB_H6aLfE_H-1" target="cbIArnzknJB_H6aLfE_H-26">
          <mxGeometry relative="1" as="geometry">
            <Array as="points">
              <mxPoint x="380" y="340" />
              <mxPoint x="440" y="340" />
            </Array>
          </mxGeometry>
        </mxCell>
        <mxCell id="cbIArnzknJB_H6aLfE_H-31" value="" style="edgeStyle=orthogonalEdgeStyle;rounded=0;orthogonalLoop=1;jettySize=auto;html=1;" edge="1" parent="WIyWlLk6GJQsqaUBKTNV-1" source="cbIArnzknJB_H6aLfE_H-1" target="cbIArnzknJB_H6aLfE_H-30">
          <mxGeometry relative="1" as="geometry" />
        </mxCell>
        <mxCell id="cbIArnzknJB_H6aLfE_H-1" value="Recetas" style="rounded=0;whiteSpace=wrap;html=1;" vertex="1" parent="WIyWlLk6GJQsqaUBKTNV-1">
          <mxGeometry x="293" y="360" width="120" height="60" as="geometry" />
        </mxCell>
        <mxCell id="cbIArnzknJB_H6aLfE_H-2" value="" style="endArrow=none;html=1;rounded=0;" edge="1" parent="WIyWlLk6GJQsqaUBKTNV-1">
          <mxGeometry width="50" height="50" relative="1" as="geometry">
            <mxPoint x="180" y="320" as="sourcePoint" />
            <mxPoint x="260" y="320" as="targetPoint" />
          </mxGeometry>
        </mxCell>
        <mxCell id="cbIArnzknJB_H6aLfE_H-3" value="" style="endArrow=none;html=1;rounded=0;" edge="1" parent="WIyWlLk6GJQsqaUBKTNV-1">
          <mxGeometry width="50" height="50" relative="1" as="geometry">
            <mxPoint x="220" y="320" as="sourcePoint" />
            <mxPoint x="220" y="290" as="targetPoint" />
          </mxGeometry>
        </mxCell>
        <mxCell id="cbIArnzknJB_H6aLfE_H-4" value="id" style="ellipse;whiteSpace=wrap;html=1;rounded=0;" vertex="1" parent="WIyWlLk6GJQsqaUBKTNV-1">
          <mxGeometry x="-100" y="470" width="80" height="30" as="geometry" />
        </mxCell>
        <mxCell id="cbIArnzknJB_H6aLfE_H-7" value="Nombre_ingrediente" style="ellipse;whiteSpace=wrap;html=1;rounded=0;" vertex="1" parent="WIyWlLk6GJQsqaUBKTNV-1">
          <mxGeometry x="20" y="465" width="120" height="40" as="geometry" />
        </mxCell>
        <mxCell id="cbIArnzknJB_H6aLfE_H-11" value="" style="edgeStyle=orthogonalEdgeStyle;rounded=0;orthogonalLoop=1;jettySize=auto;html=1;endArrow=none;endFill=0;" edge="1" parent="WIyWlLk6GJQsqaUBKTNV-1" source="cbIArnzknJB_H6aLfE_H-0" target="cbIArnzknJB_H6aLfE_H-10">
          <mxGeometry relative="1" as="geometry">
            <mxPoint x="160" y="390" as="sourcePoint" />
            <mxPoint x="293" y="390" as="targetPoint" />
          </mxGeometry>
        </mxCell>
        <mxCell id="cbIArnzknJB_H6aLfE_H-10" value="Contiene" style="rhombus;whiteSpace=wrap;html=1;" vertex="1" parent="WIyWlLk6GJQsqaUBKTNV-1">
          <mxGeometry x="180" y="350" width="80" height="80" as="geometry" />
        </mxCell>
        <mxCell id="cbIArnzknJB_H6aLfE_H-17" value="Categoria" style="ellipse;whiteSpace=wrap;html=1;rounded=0;" vertex="1" parent="WIyWlLk6GJQsqaUBKTNV-1">
          <mxGeometry x="-60" y="280" width="80" height="30" as="geometry" />
        </mxCell>
        <mxCell id="cbIArnzknJB_H6aLfE_H-19" value="" style="endArrow=none;html=1;rounded=0;" edge="1" parent="WIyWlLk6GJQsqaUBKTNV-1">
          <mxGeometry width="50" height="50" relative="1" as="geometry">
            <mxPoint x="-75" y="490" as="sourcePoint" />
            <mxPoint x="-45" y="490" as="targetPoint" />
          </mxGeometry>
        </mxCell>
        <mxCell id="cbIArnzknJB_H6aLfE_H-22" value="id" style="ellipse;whiteSpace=wrap;html=1;rounded=0;" vertex="1" parent="WIyWlLk6GJQsqaUBKTNV-1">
          <mxGeometry x="293" y="460" width="80" height="30" as="geometry" />
        </mxCell>
        <mxCell id="cbIArnzknJB_H6aLfE_H-25" value="Nombre" style="ellipse;whiteSpace=wrap;html=1;rounded=0;" vertex="1" parent="WIyWlLk6GJQsqaUBKTNV-1">
          <mxGeometry x="480" y="380" width="80" height="30" as="geometry" />
        </mxCell>
        <mxCell id="cbIArnzknJB_H6aLfE_H-26" value="Tiempo_coccion" style="ellipse;whiteSpace=wrap;html=1;rounded=0;" vertex="1" parent="WIyWlLk6GJQsqaUBKTNV-1">
          <mxGeometry x="390" y="270" width="110" height="40" as="geometry" />
        </mxCell>
        <mxCell id="cbIArnzknJB_H6aLfE_H-30" value="Instrucciones" style="ellipse;whiteSpace=wrap;html=1;rounded=0;" vertex="1" parent="WIyWlLk6GJQsqaUBKTNV-1">
          <mxGeometry x="280" y="270" width="80" height="40" as="geometry" />
        </mxCell>
        <mxCell id="cbIArnzknJB_H6aLfE_H-32" value="" style="endArrow=none;html=1;rounded=0;" edge="1" parent="WIyWlLk6GJQsqaUBKTNV-1">
          <mxGeometry width="50" height="50" relative="1" as="geometry">
            <mxPoint x="318" y="484.89" as="sourcePoint" />
            <mxPoint x="348" y="484.89" as="targetPoint" />
          </mxGeometry>
        </mxCell>
        <mxCell id="cbIArnzknJB_H6aLfE_H-33" value="1" style="text;html=1;align=center;verticalAlign=middle;resizable=0;points=[];autosize=1;strokeColor=none;fillColor=none;" vertex="1" parent="WIyWlLk6GJQsqaUBKTNV-1">
          <mxGeometry x="180" y="288" width="30" height="30" as="geometry" />
        </mxCell>
        <mxCell id="cbIArnzknJB_H6aLfE_H-34" value="M" style="text;html=1;align=center;verticalAlign=middle;resizable=0;points=[];autosize=1;strokeColor=none;fillColor=none;" vertex="1" parent="WIyWlLk6GJQsqaUBKTNV-1">
          <mxGeometry x="230" y="288" width="30" height="30" as="geometry" />
        </mxCell>
        <mxCell id="cbIArnzknJB_H6aLfE_H-35" value="" style="endArrow=none;html=1;rounded=0;" edge="1" parent="WIyWlLk6GJQsqaUBKTNV-1">
          <mxGeometry width="50" height="50" relative="1" as="geometry">
            <mxPoint x="305" y="302.87" as="sourcePoint" />
            <mxPoint x="335" y="302.87" as="targetPoint" />
          </mxGeometry>
        </mxCell>
        <mxCell id="cbIArnzknJB_H6aLfE_H-36" value="" style="endArrow=none;html=1;rounded=0;" edge="1" parent="WIyWlLk6GJQsqaUBKTNV-1">
          <mxGeometry width="50" height="50" relative="1" as="geometry">
            <mxPoint x="305" y="294.96" as="sourcePoint" />
            <mxPoint x="335" y="294.96" as="targetPoint" />
          </mxGeometry>
        </mxCell>
      </root>
    </mxGraphModel>
  </diagram>
</mxfile>
